<svg width="64" height="65" viewBox="0 0 64 65" fill="black" xmlns="http://www.w3.org/2000/svg">
<path fill-rule="evenodd" clip-rule="evenodd" d="M7.31334 14.9027C7.32667 15.0094 7.38222 15.0916 7.48 15.1494C7.57778 15.2027 7.66445 15.2649 7.74 15.336C14.7444 21.8338 21.7333 28.3494 28.7067 34.8827C30.4 36.4694 32.4133 37.576 34.2933 35.8227C41.5778 29.0272 48.9867 22.1205 56.52 15.1027C56.8089 14.8316 56.7556 14.696 56.36 14.696H7.5C7.47371 14.6959 7.44768 14.7013 7.42363 14.7119C7.39957 14.7225 7.37802 14.7381 7.3604 14.7576C7.34278 14.7771 7.32948 14.8001 7.32137 14.8251C7.31325 14.8501 7.31052 14.8766 7.31334 14.9027ZM19.6667 31.9094L4.34667 17.616C4.31747 17.5891 4.28114 17.5712 4.24202 17.5644C4.2029 17.5576 4.16265 17.5622 4.12608 17.5777C4.08951 17.5931 4.05817 17.6188 4.03581 17.6516C4.01345 17.6845 4.00102 17.723 4 17.7627V47.396C3.99979 47.4371 4.0118 47.4772 4.03449 47.5114C4.05718 47.5456 4.08954 47.5723 4.12744 47.588C4.16533 47.6037 4.20705 47.6078 4.24728 47.5997C4.28751 47.5917 4.32443 47.5718 4.35334 47.5427L19.6667 32.2094C19.687 32.1901 19.7033 32.1668 19.7144 32.141C19.7254 32.1152 19.7312 32.0874 19.7312 32.0594C19.7312 32.0313 19.7254 32.0035 19.7144 31.9777C19.7033 31.9519 19.687 31.9287 19.6667 31.9094ZM59.6467 47.5027L44.3467 32.216C44.3263 32.1967 44.3101 32.1735 44.299 32.1477C44.2879 32.1219 44.2822 32.0941 44.2822 32.066C44.2822 32.038 44.2879 32.0102 44.299 31.9844C44.3101 31.9586 44.3263 31.9354 44.3467 31.916L59.6533 17.6294C59.6825 17.6025 59.7189 17.5845 59.758 17.5777C59.7971 17.5709 59.8373 17.5755 59.8739 17.591C59.9105 17.6065 59.9418 17.6322 59.9642 17.665C59.9865 17.6978 59.999 17.7363 60 17.776V47.356C60.0002 47.3971 59.9882 47.4372 59.9655 47.4714C59.9428 47.5056 59.9105 47.5322 59.8726 47.548C59.8347 47.5637 59.7929 47.5678 59.7527 47.5597C59.7125 47.5517 59.6756 47.5318 59.6467 47.5027ZM36.94 38.7694C33.9 41.396 29.6867 41.2294 26.7467 38.5094C25.4578 37.3183 24.1956 36.1494 22.96 35.0027C22.8994 34.9454 22.8188 34.914 22.7353 34.9152C22.6519 34.9164 22.5722 34.9502 22.5133 35.0094L7.32 50.2094C6.99556 50.5338 7.06223 50.696 7.52 50.696H56.6867C57.0333 50.696 57.0844 50.5738 56.84 50.3294L41.4867 35.0027C41.4173 34.9347 41.3243 34.8965 41.2281 34.8965C41.1318 34.8965 41.0402 34.9347 40.9733 35.0027C39.6889 36.3005 38.3444 37.556 36.94 38.7694Z" />
</svg>
