<svg width="64" height="64" viewBox="0 0 64 64" fill="black" xmlns="http://www.w3.org/2000/svg">
<path d="M54.9091 4H9.09091C6.27818 4 4 6.27818 4 9.09091V54.9091C4 57.7218 6.27818 60 9.09091 60H34.5455V37.0909H26.9091V29.4545H34.5455V25.3538C34.5455 17.5902 38.328 14.1818 44.7807 14.1818C47.8709 14.1818 49.5051 14.4109 50.2789 14.5153V21.8182H45.8778C43.1389 21.8182 42.1818 23.264 42.1818 26.1913V29.4545H50.2102L49.1207 37.0909H42.1818V60H54.9091C57.7218 60 60 57.7218 60 54.9091V9.09091C60 6.27818 57.7193 4 54.9091 4Z"/>
</svg>
