<svg width="64" height="64" viewBox="0 0 64 64" fill="black" xmlns="http://www.w3.org/2000/svg">
<path d="M20.4659 4C11.4276 4 4 11.4176 4 20.4659V43.5341C4 52.5724 11.4176 60 20.4659 60H43.5341C52.5724 60 60 52.5824 60 43.5341V20.4659C60 11.4276 52.5824 4 43.5341 4H20.4659ZM20.4659 9.09091H43.5341C49.8281 9.09091 54.9091 14.1719 54.9091 20.4659V43.5341C54.9091 49.8281 49.8281 54.9091 43.5341 54.9091H20.4659C14.1719 54.9091 9.09091 49.8281 9.09091 43.5341V20.4659C9.09091 14.1719 14.1719 9.09091 20.4659 9.09091ZM47.0341 14.6591C45.7514 14.6591 44.7273 15.6832 44.7273 16.9659C44.7273 18.2486 45.7514 19.2727 47.0341 19.2727C48.3168 19.2727 49.3409 18.2486 49.3409 16.9659C49.3409 15.6832 48.3168 14.6591 47.0341 14.6591ZM32 16.7273C23.598 16.7273 16.7273 23.598 16.7273 32C16.7273 40.402 23.598 47.2727 32 47.2727C40.402 47.2727 47.2727 40.402 47.2727 32C47.2727 23.598 40.402 16.7273 32 16.7273ZM32 21.8182C37.6577 21.8182 42.1818 26.3423 42.1818 32C42.1818 37.6577 37.6577 42.1818 32 42.1818C26.3423 42.1818 21.8182 37.6577 21.8182 32C21.8182 26.3423 26.3423 21.8182 32 21.8182Z" />
</svg>
