<svg width="64" height="64" viewBox="0 0 64 64" fill="black" xmlns="http://www.w3.org/2000/svg">
<path d="M32 12.4712C35.301 12.4712 37.9855 15.1558 37.9855 18.4567C37.9855 21.7478 35.301 24.4323 32 24.4323C28.699 24.4323 26.0145 21.7478 26.0145 18.4567C26.0145 15.1558 28.699 12.4712 32 12.4712ZM32 32.9035C39.9741 32.9035 46.4567 26.4209 46.4567 18.4567C46.4567 10.4827 39.9741 4 32 4C24.0259 4 17.5532 10.4827 17.5532 18.4567C17.5532 26.4209 24.0259 32.9035 32 32.9035ZM37.8463 44.6956C40.7894 44.0195 43.6231 42.8562 46.238 41.2157C48.2166 39.9728 48.8132 37.3579 47.5703 35.3793C46.3175 33.3907 43.7125 32.7942 41.724 34.047C35.8081 37.7655 28.1919 37.7655 22.2661 34.047C20.2875 32.7942 17.6725 33.3907 16.4297 35.3793C15.1868 37.3579 15.7834 39.9728 17.762 41.2157C20.3769 42.8562 23.2106 44.0195 26.1537 44.6956L18.0702 52.7691C16.4197 54.4196 16.4197 57.1042 18.0702 58.7547C18.9054 59.5799 19.9792 59.9975 21.063 59.9975C22.1467 59.9975 23.2305 59.5799 24.0657 58.7547L32 50.8204L39.9442 58.7547C41.5947 60.4151 44.2693 60.4151 45.9298 58.7547C47.5803 57.1042 47.5803 54.4196 45.9298 52.7691L37.8463 44.6956Z" />
</svg>
