<svg width="64" height="64" viewBox="0 0 64 64" fill="black" xmlns="http://www.w3.org/2000/svg">
<path d="M58.4997 44.2679C51.4337 43.103 48.2051 35.785 48.1005 35.5472C48.0862 35.5044 48.0529 35.4284 48.0339 35.3856C47.8199 34.9576 47.606 34.3537 47.7866 33.9258C48.0957 33.1935 49.565 32.7275 50.4447 32.447C50.7538 32.3471 51.0486 32.2568 51.2768 32.1664C53.4118 31.32 54.4769 30.2169 54.4532 28.8759C54.4342 27.7966 53.6068 26.8075 52.3895 26.3796C51.9663 26.1989 51.4813 26.1085 50.9915 26.1085C50.6587 26.1085 50.1546 26.1561 49.6696 26.3796C48.8565 26.76 48.1433 26.9644 47.6345 26.9882C47.5251 26.9835 47.43 26.9739 47.3492 26.9597L47.4015 26.1228C47.6392 22.3378 47.9388 17.6208 46.6597 14.7536C42.8842 6.3039 34.8863 5.64771 32.523 5.64771L31.4484 5.65721C29.0899 5.65721 21.1063 6.31341 17.3403 14.7583C16.0612 17.6256 16.356 22.3378 16.5985 26.1276L16.608 26.2702C16.6223 26.5032 16.6365 26.7362 16.6508 26.9597C16.123 27.0548 15.0912 26.8788 14.0213 26.3796C12.5663 25.6996 9.94624 26.5983 9.58486 28.5003C9.42319 29.3419 9.61815 30.9396 12.7184 32.1617C12.9514 32.2568 13.2415 32.3471 13.5553 32.447C14.4302 32.7275 15.8995 33.1887 16.2086 33.9258C16.3893 34.3537 16.1753 34.9576 15.9233 35.4759C15.7902 35.785 12.5805 43.103 5.50031 44.2679C4.59685 44.4153 3.95493 45.2142 4.00248 46.1367C4.01674 46.3792 4.07856 46.6217 4.17841 46.8594C4.82034 48.3668 7.15505 49.4033 11.5106 50.1118C11.5867 50.3686 11.6723 50.749 11.7199 50.9582C11.8102 51.3909 11.9101 51.8284 12.0432 52.2849C12.1716 52.7176 12.6138 53.7209 13.9928 53.7209C14.4112 53.7209 14.8677 53.6306 15.3574 53.5355C16.0802 53.3928 16.9837 53.2169 18.1439 53.2169C18.7906 53.2169 19.4563 53.2739 20.1267 53.3833C21.363 53.5878 22.4805 54.3818 23.7786 55.2948C25.8042 56.7308 28.1009 58.3523 31.6624 58.3523C31.7575 58.3523 31.8526 58.3475 31.9429 58.3428C32.0713 58.3475 32.2045 58.3523 32.3376 58.3523C35.8991 58.3523 38.1958 56.7261 40.2262 55.2948C41.4625 54.4151 42.6322 53.5925 43.8733 53.3833C44.5437 53.2739 45.2094 53.2169 45.8561 53.2169C46.9735 53.2169 47.858 53.3595 48.6473 53.5164C49.2084 53.6258 49.6554 53.6781 50.0691 53.6781C50.9915 53.6781 51.7 53.1503 51.9568 52.2659C52.0899 51.8189 52.185 51.3862 52.2801 50.9487C52.3182 50.7871 52.4085 50.3781 52.4894 50.1071C56.8449 49.3986 59.1797 48.362 59.8168 46.8689C59.9214 46.6312 59.9785 46.3839 59.9975 46.1271C60.0451 45.2189 59.4031 44.4201 58.4997 44.2679Z" />
</svg>
