<svg width="64" height="64" viewBox="0 0 64 64" fill="black" xmlns="http://www.w3.org/2000/svg">
<path d="M58.9425 7.22741C57.9873 6.41737 56.4869 6.30147 54.9356 6.92428H54.9331C53.3015 7.57894 8.7492 26.6888 6.93552 27.4695C6.60565 27.5842 3.72465 28.6591 4.02141 31.0536C4.28633 33.2124 6.60183 34.1065 6.88458 34.2097L18.2112 38.088C18.9626 40.5894 21.7328 49.8183 22.3454 51.7899C22.7275 53.019 23.3503 54.634 24.4419 54.9664C25.3996 55.3358 26.3523 54.9982 26.9688 54.5143L33.8936 48.0912L45.0725 56.8094L45.3387 56.9686C46.0977 57.3048 46.825 57.4729 47.5191 57.4729C48.0553 57.4729 48.5699 57.3723 49.0615 57.1711C50.7364 56.4833 51.4063 54.8874 51.4764 54.7066L59.8264 11.3044C60.3359 8.98632 59.6277 7.80692 58.9425 7.22741ZM28.2004 39.6393L24.3794 49.8285L20.5585 37.092L49.8525 15.4399L28.2004 39.6393Z" />
</svg>
