<svg width="64" height="64" viewBox="0 0 64 64" fill="black" xmlns="http://www.w3.org/2000/svg">
<path d="M58.3772 14.8757C57.3355 11.157 55.273 8.21948 52.2522 6.14137C48.4398 3.51118 44.0544 2.58411 40.2679 2.0164C35.0284 1.23516 30.2837 1.12578 25.7576 1.67786C21.5181 2.19869 18.3254 3.02681 15.414 4.36534C9.70568 6.99032 6.27863 11.2351 5.23176 16.9798C4.72135 19.7715 4.3776 22.2923 4.17969 24.6985C3.72136 30.261 4.13802 35.1828 5.45051 39.7453C6.73175 44.1932 8.96611 47.3702 12.2838 49.4587C13.1275 49.99 14.2109 50.3754 15.2577 50.7452C15.8515 50.9535 16.4296 51.1566 16.9035 51.3806C17.341 51.5837 17.341 51.6202 17.3358 51.9848C17.2994 55.1462 17.3358 61.3441 17.3358 61.3441L17.3463 62.667H19.7212L20.1066 62.292C20.3619 62.0524 26.2472 56.3649 28.3462 54.0733L28.6326 53.7556C28.992 53.3389 28.992 53.3389 29.3618 53.3337C32.1951 53.2764 35.0909 53.167 37.9659 53.0108C41.4502 52.8233 45.4867 52.4848 49.2887 50.9014C52.7679 49.4483 55.3095 47.1411 56.8355 44.0473C58.4293 40.8182 59.372 37.3234 59.7261 33.3599C60.3511 26.3912 59.9084 20.3444 58.3772 14.8757ZM45.846 41.9744C44.971 43.3963 43.669 44.3859 42.1325 45.0265C41.0075 45.4952 39.8617 45.3963 38.7523 44.9275C29.4659 40.9953 22.1795 34.8026 17.3671 25.8964C16.3723 24.0631 15.6848 22.0631 14.8931 20.1256C14.7317 19.7298 14.7421 19.2611 14.6692 18.8236C14.7369 15.6934 17.1379 13.9278 19.565 13.3965C20.4921 13.1882 21.315 13.5163 22.0025 14.1778C23.9087 15.9903 25.4139 18.0996 26.5493 20.4642C27.0441 21.5006 26.8201 22.4173 25.9764 23.1881C25.7993 23.3496 25.617 23.4954 25.4243 23.6412C23.4972 25.0891 23.216 26.1881 24.242 28.3704C25.992 32.0839 28.8982 34.5786 32.6534 36.1255C33.643 36.5318 34.5753 36.3286 35.3305 35.5266C35.4347 35.4224 35.5492 35.3182 35.6222 35.1932C37.1013 32.7245 39.2523 32.9693 41.2367 34.3755C42.5388 35.3026 43.8044 36.2818 45.0908 37.2245C47.0544 38.6672 47.0387 40.0213 45.846 41.9744ZM33.5284 17.334C33.0909 17.334 32.6534 17.3705 32.2211 17.4434C31.492 17.5632 30.8097 17.0736 30.6847 16.3444C30.5649 15.6205 31.0545 14.933 31.7836 14.8132C32.3566 14.7142 32.9451 14.6673 33.5284 14.6673C39.3044 14.6673 44.0023 19.3652 44.0023 25.1412C44.0023 25.7298 43.9554 26.3183 43.8565 26.886C43.7471 27.537 43.1846 28.0006 42.544 28.0006C42.4711 28.0006 42.3981 27.9954 42.32 27.9797C41.5961 27.8599 41.1065 27.1725 41.2263 26.4485C41.2992 26.0214 41.3356 25.5839 41.3356 25.1412C41.3356 20.8392 37.8305 17.334 33.5284 17.334ZM40.0023 25.3339C40.0023 26.0683 39.4034 26.6673 38.669 26.6673C37.9346 26.6673 37.3357 26.0683 37.3357 25.3339C37.3357 23.1308 35.5388 21.334 33.3357 21.334C32.6013 21.334 32.0024 20.735 32.0024 20.0006C32.0024 19.2663 32.6013 18.6673 33.3357 18.6673C37.0128 18.6673 40.0023 21.6569 40.0023 25.3339ZM47.6168 28.2974C47.4762 28.9172 46.9241 29.3339 46.3148 29.3339C46.2158 29.3339 46.1169 29.3235 46.0179 29.3026C45.2992 29.136 44.8512 28.4224 45.0127 27.7037C45.2054 26.8547 45.3044 25.9745 45.3044 25.0891C45.3044 18.61 40.0284 13.334 33.5493 13.334C32.6638 13.334 31.7836 13.433 30.9347 13.6257C30.2159 13.7924 29.5024 13.3392 29.3409 12.6205C29.1743 11.9017 29.6274 11.1882 30.3462 11.0267C31.3878 10.7872 32.4659 10.6674 33.5493 10.6674C41.5023 10.6674 47.971 17.1361 47.971 25.0891C47.971 26.1725 47.8512 27.2506 47.6168 28.2974Z" />
</svg>
