<svg width="64" height="64" viewBox="0 0 64 64" fill="black" xmlns="http://www.w3.org/2000/svg">
<path d="M58.4368 18.3578C57.9192 15.5005 55.4526 13.4196 52.5902 12.77C48.3067 11.8615 40.3792 11.2119 31.8021 11.2119C23.23 11.2119 15.1756 11.8615 10.8871 12.77C8.02973 13.4196 5.55809 15.3685 5.04042 18.3578C4.51767 21.6059 4 26.1533 4 32C4 37.8467 4.51767 42.3941 5.1673 45.6422C5.69005 48.4995 8.15661 50.5804 11.014 51.23C15.5614 52.1385 23.3569 52.7881 31.934 52.7881C40.5111 52.7881 48.3067 52.1385 52.8541 51.23C55.7114 50.5804 58.178 48.6315 58.7007 45.6422C59.2184 42.3941 59.868 37.7147 60 32C59.7361 26.1533 59.0865 21.6059 58.4368 18.3578ZM24.7881 41.0948V22.9052L40.638 32L24.7881 41.0948Z" />
</svg>
