<svg width="64" height="64" viewBox="0 0 64 64" fill="black" xmlns="http://www.w3.org/2000/svg">
<path d="M26.3945 30.7559C27.6387 30.7559 31.3711 28.7428 31.3711 23.7663C31.3711 16.029 24.5208 14.582 16.8047 14.582C15.3466 14.582 10.9012 14.5845 7.73242 14.5833C5.67088 14.582 4 16.2542 4 18.3157V45.6855C4 47.7471 5.67088 49.418 7.73242 49.418H22.4133C27.9111 49.418 32.5717 45.0684 32.6152 39.5706C32.6737 32.0112 26.3945 30.7559 26.3945 30.7559ZM11.4648 20.8027H20.1738C22.2354 20.8027 23.9062 22.4736 23.9062 24.5352C23.9062 26.5967 22.2354 28.2676 20.1738 28.2676H11.4648V20.8027ZM20.7959 43.1973H11.4648V34.4883H20.7959C23.2008 34.4883 25.1504 36.4378 25.1504 38.8428C25.1504 41.2477 23.2008 43.1973 20.7959 43.1973ZM58.1325 38.2207C59.1639 38.2207 59.9988 37.3859 60 36.3545C60 29.1397 55.0098 23.291 47.5586 23.291C40.6872 23.291 35.1172 29.1397 35.1172 36.3545C35.1172 43.5693 40.6872 49.418 47.5586 49.418C53.6387 49.418 57.0165 46.5739 58.6663 42.3973C58.9848 41.5923 58.3602 40.7202 57.4943 40.7202H54.5071C54.053 40.7202 53.6512 40.9777 53.416 41.3671C52.2789 43.2458 50.5433 44.4414 48.2068 44.4414C44.7083 44.4414 42.1603 41.7852 41.5108 38.2207H54.8505H58.1325ZM47.5586 28.2676C50.1427 28.2676 52.6471 30.3279 53.3538 33.2441H41.8169C42.7537 30.3217 44.9708 28.2676 47.5586 28.2676ZM53.1435 20.8027H43.1904C42.1603 20.8027 41.3242 19.9667 41.3242 18.9365C41.3242 17.9064 42.1603 17.0703 43.1904 17.0703H53.1435C54.1737 17.0703 55.0098 17.9064 55.0098 18.9365C55.0098 19.9667 54.1737 20.8027 53.1435 20.8027Z"/>
</svg>
