<svg width="64" height="64" viewBox="0 0 64 64" fill="black" xmlns="http://www.w3.org/2000/svg">
<path d="M32 4C16.5599 4 4 16.5599 4 32C4 47.4401 16.5599 60 32 60C47.4401 60 60 47.4401 60 32C60 16.5599 47.4401 4 32 4ZM32 8.66667C37.9154 8.66667 43.2747 10.8906 47.3854 14.5C46.9479 15.1107 46.3555 15.849 45.4167 16.7604C43.4206 18.6927 40.2305 21.0169 35.3542 22.8125C32.0547 16.7148 28.819 12.1302 26.6771 9.25C28.3815 8.85807 30.168 8.66667 32 8.66667ZM22.0833 10.8542C23.9974 13.3607 27.4062 18.0091 30.8333 24.1979C21.3451 26.7135 12.6406 27.0326 9.17708 27.0417C10.7266 19.832 15.5755 13.8984 22.0833 10.8542ZM50.5937 17.9271C53.4375 21.6914 55.2057 26.349 55.3333 31.4167C53.2552 30.9518 50.1927 30.4961 46.2187 30.4687C44.1497 30.4596 41.8073 30.6055 39.2917 30.9062C38.7083 29.5755 38.0794 28.2904 37.4687 27.0417C42.7005 25.0365 46.2643 22.3932 48.625 20.1146C49.4271 19.3307 50.056 18.6107 50.5937 17.9271ZM32.9479 28.4271C33.4857 29.5117 34.0326 30.6237 34.5521 31.7812C24.5807 34.543 17.4167 43.0013 14.3542 47.2396C10.8268 43.1562 8.66667 37.8333 8.66667 32C8.66667 31.8997 8.66667 31.8086 8.66667 31.7083C11.8203 31.7448 21.8464 31.526 32.9479 28.4271ZM46.2187 35.0625C50.3841 35.0625 53.2643 35.6458 54.9687 36.0833C53.8841 42.2995 50.375 47.6315 45.4167 51.1042C44.487 45.526 42.9557 40.2214 41.1146 35.3542C42.9557 35.1719 44.6966 35.0625 46.2187 35.0625ZM36.375 36.1562C38.4714 41.4792 40.2305 47.3216 41.1146 53.5104C38.3255 54.6862 35.2266 55.3333 32 55.3333C26.6497 55.3333 21.7096 53.5378 17.7812 50.5208C20.1784 47.2396 27.224 38.5078 36.375 36.1562Z" />
</svg>
