<svg width="64" height="64" viewBox="0 0 64 64" fill="black" xmlns="http://www.w3.org/2000/svg">
<path d="M32 4C16.537 4 4 16.7333 4 32.4384C4 45.7642 13.0347 56.9144 25.2147 60C25.084 59.6161 25 59.1706 25 58.6184V53.7578C23.8637 53.7578 21.9597 53.7578 21.4813 53.7578C19.5657 53.7578 17.8623 52.9212 17.0363 51.3666C16.1193 49.6389 15.9607 46.9965 13.688 45.3803C13.0137 44.8423 13.527 44.2285 14.304 44.3115C15.739 44.7238 16.929 45.7239 18.049 47.2075C19.1643 48.6934 19.6893 49.0299 21.773 49.0299C22.7833 49.0299 24.2953 48.9706 25.7187 48.7431C26.484 46.769 27.807 44.9513 29.424 44.0934C20.1 43.1194 15.6503 38.4081 15.6503 32.0119C15.6503 29.2581 16.8053 26.5943 18.7677 24.3501C18.1237 22.1224 17.314 17.5793 19.015 15.8493C23.2103 15.8493 25.7467 18.6126 26.3557 19.3591C28.4463 18.6316 30.7423 18.2192 33.155 18.2192C35.5723 18.2192 37.8777 18.6316 39.973 19.3639C40.575 18.6221 43.1137 15.8493 47.3183 15.8493C49.0263 17.5817 48.2073 22.1437 47.5563 24.3667C49.507 26.6062 50.655 29.2628 50.655 32.0119C50.655 38.4034 46.2123 43.1123 36.9023 44.0911C39.4643 45.449 41.3333 49.2645 41.3333 52.1391V58.6184C41.3333 58.8648 41.2797 59.0426 41.2517 59.2535C52.1623 55.3693 60 44.8471 60 32.4384C60 16.7333 47.463 4 32 4Z" />
</svg>
