<svg width="64" height="64" viewBox="0 0 64 64" fill="black" xmlns="http://www.w3.org/2000/svg">
<path d="M16.1739 58.7826H4V22.2609H16.1739V58.7826ZM10.0894 17.3913C6.72209 17.3913 4 14.6619 4 11.3019C4 7.94193 6.72696 5.21741 10.0894 5.21741C13.4445 5.21741 16.1739 7.9468 16.1739 11.3019C16.1739 14.6619 13.4445 17.3913 10.0894 17.3913ZM60 58.7826H48.296V41.0087C48.296 36.7698 48.2157 31.3183 42.2115 31.3183C36.1172 31.3183 35.1798 35.9346 35.1798 40.7019V58.7826H23.4783V22.2341H34.7123V27.2278H34.8706C36.4337 24.3548 40.2539 21.3259 45.9513 21.3259C57.8087 21.3259 60 28.8957 60 38.7371V58.7826Z" />
</svg>
