<svg width="64" height="64" viewBox="0 0 64 64" fill="black" xmlns="http://www.w3.org/2000/svg">
<path d="M57.5963 35.4009C57.7449 34.2852 57.8462 33.1545 57.8462 32C57.8462 17.7265 46.2735 6.15385 32 6.15385C30.8455 6.15385 29.7148 6.25508 28.5991 6.40369C26.1394 4.88954 23.2532 4 20.1538 4C11.2326 4 4 11.2326 4 20.1538C4 23.2532 4.88954 26.1394 6.40369 28.5991C6.25508 29.7148 6.15385 30.8455 6.15385 32C6.15385 46.2735 17.7265 57.8462 32 57.8462C33.1545 57.8462 34.2852 57.7449 35.4009 57.5963C37.8606 59.1105 40.7468 60 43.8462 60C52.7674 60 60 52.7674 60 43.8462C60 40.7468 59.1105 37.8606 57.5963 35.4009ZM32.3209 47.0769C23.9295 47.0769 19.1114 42.6788 19.1114 38.3625C19.1114 36.1612 21.416 35.4569 22.3378 35.4569C24.468 35.4569 25.1766 37.1951 25.5643 37.992C27.7289 42.4418 29.8095 41.856 31.86 42.0498C33.6714 42.22 37.9231 41.4209 37.9231 38.3151C37.9231 38.0178 38.3905 35.9975 34.7203 34.996C32.3748 34.3542 28.2394 33.568 24.8363 32.2585C21.6357 31.0265 19.7575 28.4892 19.7575 25.2197C19.7575 23.5849 20.5954 16.9231 31.9289 16.9231C39.4932 16.9231 43.5252 20.7978 43.5252 24.2074C43.5252 24.9914 43.2258 25.6828 42.6249 26.3052C42.024 26.9277 40.3311 27.8388 38.4766 26.652C38.0092 26.3526 37.6237 25.7302 37.1628 24.9225C36.6071 23.908 35.6982 21.948 31.5132 21.948C27.4532 21.948 26.3268 23.8843 26.3268 24.692C26.3268 27.4058 31.5068 27.9766 32.8982 28.3363C37.9769 29.6458 44.8865 30.8498 44.8865 37.6969C44.8865 45.5585 36.7062 47.0769 32.3209 47.0769Z" />
</svg>
