<svg width="64" height="65" viewBox="0 0 64 65" fill="black" xmlns="http://www.w3.org/2000/svg">
<path d="M34.6427 43.9636C36.6997 45.4433 41.1065 41.9797 42.8952 40.9634C43.3556 40.7011 43.8764 40.5638 44.4056 40.5652C44.9349 40.5666 45.4541 40.7067 45.9117 40.9715C49.8414 43.221 53.9718 45.6358 58.3027 48.2159C61.0183 49.8338 60.0101 52.9072 58.4978 54.8992C49.4322 66.8267 35.9355 57.7205 27.8374 50.7119C19.9833 43.9067 11.7958 35.581 6.92559 26.8325C2.779 19.3767 2.39686 11.612 10.0233 6.08325C12.243 4.4734 15.0074 3.83108 16.6579 6.66052C19.1458 10.9155 21.4929 14.9293 23.699 18.7019C23.9894 19.1985 24.1404 19.7647 24.1361 20.3413C24.1318 20.9178 23.9724 21.4833 23.6746 21.9785C22.661 23.6643 21.6501 25.3988 20.6419 27.1821C19.9914 28.3447 20.3573 29.7107 21.146 30.7026C25.4714 36.1718 29.9703 40.5921 34.6427 43.9636Z" />
</svg>
