<svg width="64" height="64" viewBox="0 0 64 64" fill="black" xmlns="http://www.w3.org/2000/svg">
<path d="M60 46.1618V47.2059C59.5372 47.9137 58.6136 48.2832 57.2292 48.3143C55.5881 48.3493 53.7972 48.357 51.8567 48.3376C50.4742 48.3259 49.3658 47.7193 48.4675 46.6926C46.2819 44.1843 44.0672 42.0143 41.8233 40.1826C40.785 39.3368 37.075 37.1201 36.83 39.8034C36.6628 41.6468 36.6394 43.667 36.76 45.8643C36.8242 47.0776 36.1242 47.9818 34.905 48.1509C27.3742 49.1834 20.0708 45.1468 15.3575 39.4009C10.44 33.4159 5.855 25.6634 4 17.9634V16.8084C4.33833 16.054 4.97028 15.6729 5.89583 15.6651C7.80917 15.6534 9.85667 15.6495 12.0383 15.6534C13.4383 15.6573 14.3542 16.2698 14.7858 17.4909C15.8631 20.5165 17.1503 23.4409 18.6475 26.2643C20.0183 28.8484 22.2 32.6168 24.6442 33.9584C24.7708 34.0274 24.911 34.0676 25.0548 34.0761C25.1986 34.0846 25.3424 34.0612 25.4758 34.0076C25.6092 33.9541 25.7288 33.8716 25.8261 33.7663C25.9234 33.6609 25.9958 33.5353 26.0383 33.3984C26.1706 32.9745 26.2406 32.5332 26.2483 32.0743C26.2833 28.9982 26.2756 25.9415 26.225 22.9043C26.1978 21.092 25.4958 19.4451 24.1192 17.9634C23.9792 17.8118 23.9014 17.6348 23.8858 17.4326C23.7847 16.2698 24.3331 15.6845 25.5308 15.6768C28.5136 15.6651 31.6519 15.6651 34.9458 15.6768C36.0969 15.6807 36.6783 16.2582 36.69 17.4093C36.7367 21.2009 36.7425 25.2415 36.7075 29.5309C36.7036 30.017 36.7969 30.4604 36.9875 30.8609C37.0598 31.0155 37.1662 31.1517 37.2986 31.2594C37.431 31.3671 37.586 31.4434 37.7521 31.4827C37.9182 31.5219 38.091 31.5231 38.2576 31.4862C38.4242 31.4492 38.5803 31.3751 38.7142 31.2693C42.9083 27.9501 45.9242 22.2451 48.1058 17.3743C48.5881 16.2893 49.4183 15.7312 50.5967 15.7001C52.7667 15.6418 54.9853 15.6457 57.2525 15.7118C60.3267 15.7993 58.005 19.9934 57.2117 21.3643C55.1311 24.9382 52.8542 28.4362 50.3808 31.8584C49.7119 32.7879 49.745 33.6201 50.48 34.3551C53.2061 37.0968 55.6367 39.7723 57.7717 42.3818C58.7244 43.5484 59.4672 44.8084 60 46.1618Z" />
</svg>
