<svg width="64" height="64" viewBox="0 0 64 64" fill="black" xmlns="http://www.w3.org/2000/svg">
<path d="M32.0001 4C16.5612 4 4.00018 16.561 4.00018 31.9999C4.00018 36.8208 5.24557 41.5613 7.6073 45.7442L4.04522 58.4537C3.92835 58.8713 4.04157 59.3193 4.34348 59.6297C4.576 59.8696 4.89253 59.9998 5.21757 59.9998C5.31496 59.9998 5.41357 59.9876 5.50974 59.9645L18.7744 56.6788C22.8246 58.853 27.3862 59.9998 32.0001 59.9998C47.439 59.9998 60 47.4388 60 31.9999C60 16.561 47.439 4 32.0001 4ZM46.0853 41.8802C45.4863 43.5383 42.6133 45.0515 41.2328 45.2548C39.9935 45.4362 38.4255 45.5141 36.7041 44.9736C35.6608 44.6449 34.3216 44.2091 32.6063 43.4774C25.3958 40.4023 20.6869 33.2331 20.3266 32.7596C19.9674 32.286 17.3914 28.9114 17.3914 25.4187C17.3914 21.926 19.248 20.2083 19.9078 19.4973C20.5676 18.7864 21.3455 18.6086 21.8252 18.6086C22.3048 18.6086 22.7833 18.6147 23.2032 18.6342C23.6452 18.6561 24.238 18.4674 24.8212 19.8528C25.4201 21.2747 26.8578 24.7674 27.0356 25.1241C27.2158 25.4796 27.3351 25.8947 27.0965 26.3683C26.8578 26.8418 26.7385 27.1377 26.3782 27.5528C26.0178 27.9679 25.6234 28.478 25.2996 28.797C24.9392 29.1512 24.5655 29.5347 24.9843 30.2457C25.4031 30.9566 26.8457 33.2806 28.9834 35.1627C31.7286 37.5804 34.0453 38.3303 34.7636 38.6858C35.4818 39.0413 35.9018 38.9816 36.3206 38.5081C36.7394 38.0333 38.1175 36.4349 38.5959 35.7251C39.0743 35.0154 39.554 35.1322 40.2138 35.3696C40.8736 35.6058 44.4077 37.3223 45.126 37.6778C45.8442 38.0333 46.3239 38.211 46.504 38.5068C46.6842 38.8015 46.6842 40.2234 46.0853 41.8802Z" />
</svg>
